# xmcd
#
# Track frame offsets:
#	150
#	22807
#	47121
#	72819
#	95194
#	120676
#	154493
#	169765
#	189353
#	228705
#
# Disc length: 3061 seconds
#
# Revision: 0
# Processed by: cddbd v1.5.1PL2 Copyright (c) Steve Scherf et al.
# Submitted via: EasyCDDAExtractor 9.0.0.1
#
DISCID=850bf30a
DTITLE=Dio - Vic's Theatre Chicago 31-05-97 Disc 1
DYEAR=1997
DGENRE=Hard Rock
TTITLE0=Jesus Mary and The Holy Ghost
TTITLE1=Straight Through The Heart
TTITLE2=Don't Talk To Strangers
TTITLE3=Holy Diver
TTITLE4=Drum Solo
TTITLE5=Heaven and Hell
TTITLE6=Double Monday
TTITLE7=Stand Up And Shout
TTITLE8=Hunter Of The Heart
TTITLE9=Mistreated
EXTD=
EXTT0=
EXTT1=
EXTT2=
EXTT3=
EXTT4=
EXTT5=
EXTT6=
EXTT7=
EXTT8=
EXTT9=
PLAYORDER=
